<?xml version="1.0" encoding="UTF-8"?> <svg xmlns="http://www.w3.org/2000/svg" width="55" height="55" viewBox="0 0 55 55" fill="none"><path d="M49.8417 39.3078C49.8212 38.84 49.6737 38.3867 49.4152 37.9963C49.1566 37.6059 48.7967 37.2933 48.374 37.0919C47.9513 36.8905 47.4817 36.808 47.0157 36.8532C46.5496 36.8983 46.1046 37.0695 45.7285 37.3483C45.3523 37.627 45.059 38.003 44.8802 38.4357C44.7014 38.8684 44.6438 39.3417 44.7134 39.8047C44.7831 40.2677 44.9775 40.703 45.2757 41.064C45.5739 41.425 45.9648 41.698 46.4063 41.8537V44.6875H38.672V42.9688C38.8999 42.9688 39.1185 42.8782 39.2796 42.717C39.4408 42.5559 39.5314 42.3373 39.5314 42.1094V38.6719C39.5314 38.444 39.4408 38.2254 39.2796 38.0642C39.1185 37.903 38.8999 37.8125 38.672 37.8125V35.2344C38.672 35.0065 38.5814 34.7879 38.4203 34.6267C38.2591 34.4655 38.0405 34.375 37.8126 34.375H36.9532V33.3996C39.7961 31.9669 42.1852 29.7729 43.8543 27.0622C45.5234 24.3514 46.4069 21.2303 46.4063 18.0469C46.4063 8.57012 38.6956 0.859375 29.2189 0.859375C25.4861 0.861049 21.855 2.07618 18.8731 4.32158C17.6954 2.99908 16.197 2.00227 14.5221 1.42723C12.8473 0.852188 11.0525 0.71832 9.3109 1.03853C7.56928 1.35874 5.93951 2.12222 4.57873 3.25538C3.21794 4.38854 2.17203 5.85316 1.54182 7.50804C0.911605 9.16291 0.71835 10.9522 0.980682 12.7035C1.24301 14.4548 1.95209 16.109 3.03954 17.5065C4.127 18.9041 5.55616 19.998 7.18925 20.6827C8.82234 21.3674 10.6043 21.6198 12.3633 21.4156C12.8694 23.9764 13.9543 26.3875 15.5352 28.4645C17.1161 30.5416 19.1511 32.2297 21.4845 33.3996V34.375H20.6251C20.3972 34.375 20.1786 34.4655 20.0174 34.6267C19.8563 34.7879 19.7657 35.0065 19.7657 35.2344V37.8125C19.5378 37.8125 19.3192 37.903 19.1581 38.0642C18.9969 38.2254 18.9064 38.444 18.9064 38.6719V42.1094C18.9064 42.3373 18.9969 42.5559 19.1581 42.717C19.3192 42.8782 19.5378 42.9688 19.7657 42.9688V46.4062C19.7668 47.3964 20.1093 48.3558 20.7355 49.1227C21.3617 49.8896 22.2333 50.4171 23.2032 50.6161V51.5625C23.2041 52.246 23.4761 52.9012 23.9593 53.3845C24.4426 53.8678 25.0979 54.1397 25.7814 54.1406H32.6564C33.3398 54.1397 33.9951 53.8678 34.4784 53.3845C34.9617 52.9012 35.2336 52.246 35.2345 51.5625V50.6161C36.2044 50.4171 37.076 49.8896 37.7022 49.1227C38.3284 48.3558 38.6709 47.3964 38.672 46.4062H47.2657C47.4936 46.4062 47.7122 46.3157 47.8734 46.1545C48.0346 45.9934 48.1251 45.7748 48.1251 45.5469V41.8559C48.6464 41.671 49.0946 41.3236 49.4036 40.8649C49.7126 40.4062 49.8662 39.8604 49.8417 39.3078ZM11.172 19.7656C9.4723 19.7656 7.81078 19.2616 6.39755 18.3173C4.98431 17.373 3.88283 16.0309 3.23239 14.4606C2.58195 12.8903 2.41176 11.1623 2.74336 9.49532C3.07495 7.82829 3.89342 6.29703 5.09528 5.09518C6.29714 3.89332 7.8284 3.07484 9.49542 2.74325C11.1624 2.41166 12.8904 2.58184 14.4607 3.23229C16.031 3.88273 17.3731 4.98421 18.3174 6.39744C19.2617 7.81068 19.7657 9.47219 19.7657 11.1719C19.7631 13.4503 18.8568 15.6346 17.2458 17.2457C15.6347 18.8567 13.4504 19.763 11.172 19.7656ZM14.0487 21.0762C15.581 20.6316 16.9892 19.8375 18.1623 18.7563C19.3355 17.675 20.2417 16.3362 20.8096 14.8452C21.3774 13.3543 21.5914 11.7518 21.4347 10.1641C21.2779 8.57638 20.7548 7.0467 19.9065 5.69551C22.5901 3.67338 25.8587 2.57919 29.2189 2.57812C37.7481 2.57812 44.6876 9.51758 44.6876 18.0469C44.6879 20.9967 43.8451 23.8852 42.2584 26.3719C40.6716 28.8587 38.4072 30.84 35.7318 32.0826C35.5834 32.1516 35.4577 32.2615 35.3696 32.3995C35.2815 32.5375 35.2346 32.6977 35.2345 32.8614V34.375H32.6564V18.758C33.1724 18.9404 33.733 18.9539 34.2572 18.7965C34.7814 18.6391 35.2419 18.319 35.572 17.8824C35.9022 17.4459 36.0848 16.9156 36.0935 16.3684C36.1022 15.8212 35.9366 15.2853 35.6205 14.8385C35.3045 14.3917 34.8544 14.057 34.3355 13.883C33.8166 13.709 33.2558 13.7046 32.7342 13.8705C32.2127 14.0364 31.7574 14.364 31.4344 14.8058C31.1114 15.2477 30.9374 15.7808 30.9376 16.3281V17.1875H27.5001V16.3281C27.5007 15.7801 27.3268 15.2461 27.0036 14.8035C26.6804 14.3609 26.2247 14.0326 25.7025 13.8663C25.1803 13.7 24.6187 13.7042 24.0991 13.8784C23.5795 14.0526 23.1288 14.3876 22.8123 14.8351C22.4958 15.2825 22.33 15.8191 22.3388 16.367C22.3477 16.915 22.5307 17.4459 22.8614 17.8829C23.1922 18.3199 23.6534 18.6403 24.1784 18.7976C24.7034 18.9549 25.2648 18.9411 25.7814 18.758V34.375H23.2032V32.8614C23.2031 32.6977 23.1562 32.5375 23.0681 32.3995C22.98 32.2615 22.8543 32.1516 22.7059 32.0826C20.4963 31.0619 18.5599 29.5324 17.0551 27.6194C15.5504 25.7063 14.5201 23.464 14.0487 21.0762ZM32.6564 16.3281C32.6564 16.1582 32.7068 15.992 32.8012 15.8507C32.8956 15.7094 33.0298 15.5992 33.1869 15.5342C33.3439 15.4691 33.5167 15.4521 33.6834 15.4853C33.8501 15.5184 34.0032 15.6003 34.1234 15.7205C34.2436 15.8406 34.3254 15.9938 34.3586 16.1605C34.3917 16.3272 34.3747 16.5 34.3097 16.657C34.2446 16.814 34.1345 16.9482 33.9932 17.0427C33.8518 17.1371 33.6857 17.1875 33.5157 17.1875C33.2879 17.1872 33.0695 17.0965 32.9084 16.9354C32.7473 16.7744 32.6567 16.5559 32.6564 16.3281ZM30.9376 18.9062V34.375H27.5001V18.9062H30.9376ZM25.7814 16.3281C25.7814 16.4981 25.731 16.6642 25.6365 16.8056C25.5421 16.9469 25.4079 17.057 25.2508 17.1221C25.0938 17.1871 24.921 17.2041 24.7543 17.171C24.5876 17.1378 24.4345 17.056 24.3143 16.9358C24.1941 16.8156 24.1123 16.6625 24.0791 16.4958C24.046 16.3291 24.063 16.1563 24.128 15.9993C24.1931 15.8422 24.3032 15.708 24.4445 15.6136C24.5859 15.5192 24.752 15.4688 24.922 15.4688C25.1498 15.4691 25.3682 15.5597 25.5293 15.7208C25.6904 15.8819 25.781 16.1003 25.7814 16.3281ZM21.4845 36.0938H36.9532V37.8125H21.4845V36.0938ZM33.5157 51.5625C33.5154 51.7903 33.4248 52.0087 33.2637 52.1698C33.1026 52.3309 32.8842 52.4216 32.6564 52.4219H25.7814C25.5535 52.4216 25.3351 52.3309 25.174 52.1698C25.0129 52.0087 24.9223 51.7903 24.922 51.5625V50.7031H33.5157V51.5625ZM36.9532 46.4062C36.9523 47.0897 36.6804 47.745 36.1971 48.2283C35.7138 48.7116 35.0586 48.9835 34.3751 48.9844H24.0626C23.3791 48.9835 22.7239 48.7116 22.2406 48.2283C21.7573 47.745 21.4854 47.0897 21.4845 46.4062V42.9688H36.9532V46.4062ZM37.8126 41.25H20.6251V39.5312H37.8126V41.25ZM47.9006 40.0039C47.8053 40.1085 47.6856 40.188 47.5522 40.2353C47.4188 40.2826 47.2758 40.2962 47.1359 40.275C46.996 40.2538 46.8635 40.1984 46.7501 40.1137C46.6367 40.029 46.546 39.9176 46.486 39.7894C46.426 39.6613 46.3985 39.5203 46.406 39.3789C46.4136 39.2376 46.4559 39.1003 46.5292 38.9793C46.6025 38.8582 46.7045 38.7571 46.8263 38.6849C46.948 38.6128 47.0857 38.5717 47.2271 38.5655C47.2399 38.5645 47.2539 38.5645 47.2668 38.5645C47.4333 38.5648 47.5962 38.6136 47.7356 38.7047C47.875 38.7959 47.9849 38.9255 48.052 39.078C48.1191 39.2304 48.1406 39.399 48.1137 39.5634C48.0868 39.7278 48.0128 39.8808 47.9006 40.0039Z" fill="#070707"></path><path d="M51.2033 35.7739C50.0793 34.8006 48.6347 34.278 47.1482 34.3071C45.6616 34.3361 44.2385 34.9148 43.1535 35.9313C43.0703 36.0082 43.0031 36.1009 42.9558 36.2039C42.9085 36.3069 42.8821 36.4183 42.878 36.5316C42.8739 36.6449 42.8923 36.7578 42.9321 36.864C42.9719 36.9701 43.0323 37.0673 43.1098 37.15C43.1873 37.2328 43.2804 37.2993 43.3838 37.3459C43.4871 37.3924 43.5986 37.4181 43.7119 37.4214C43.8253 37.4247 43.9381 37.4055 44.044 37.365C44.1498 37.3245 44.2466 37.2634 44.3288 37.1853C45.1037 36.4595 46.12 36.0463 47.1816 36.0255C48.2432 36.0047 49.2749 36.3777 50.0777 37.0726C50.1627 37.1483 50.2619 37.2063 50.3695 37.2433C50.4771 37.2803 50.591 37.2956 50.7046 37.2882C50.8181 37.2808 50.9291 37.251 51.031 37.2004C51.133 37.1498 51.2238 37.0794 51.2984 36.9934C51.3729 36.9075 51.4296 36.8075 51.4652 36.6994C51.5008 36.5913 51.5146 36.4773 51.5057 36.3638C51.4969 36.2504 51.4656 36.1398 51.4137 36.0385C51.3617 35.9373 51.2902 35.8473 51.2033 35.7739Z" fill="#070707"></path><path d="M52.9963 33.9181C51.4209 32.5079 49.3808 31.7282 47.2665 31.728C45.1522 31.7279 43.112 32.5073 41.5363 33.9172C41.369 34.0699 41.2686 34.2824 41.2572 34.5087C41.2458 34.7349 41.3241 34.9566 41.4752 35.1253C41.6263 35.2941 41.838 35.3964 42.0641 35.4099C42.2902 35.4235 42.5126 35.3472 42.6827 35.1977C43.9432 34.07 45.5751 33.4467 47.2663 33.4468C48.9576 33.4469 50.5894 34.0705 51.8497 35.1983C51.9335 35.275 52.0317 35.3342 52.1386 35.3727C52.2455 35.4112 52.359 35.428 52.4724 35.4224C52.5859 35.4167 52.6971 35.3886 52.7996 35.3397C52.9021 35.2908 52.994 35.222 53.0697 35.1374C53.1455 35.0528 53.2038 34.954 53.2412 34.8467C53.2785 34.7394 53.2942 34.6258 53.2874 34.5124C53.2806 34.399 53.2513 34.2881 53.2014 34.1861C53.1514 34.0841 53.0817 33.993 52.9963 33.9181Z" fill="#070707"></path><path d="M28.3594 43.8281H23.2031C22.9752 43.8281 22.7566 43.9187 22.5955 44.0798C22.4343 44.241 22.3438 44.4596 22.3438 44.6875C22.3438 44.9154 22.4343 45.134 22.5955 45.2952C22.7566 45.4563 22.9752 45.5469 23.2031 45.5469H28.3594C28.5873 45.5469 28.8059 45.4563 28.967 45.2952C29.1282 45.134 29.2188 44.9154 29.2188 44.6875C29.2188 44.4596 29.1282 44.241 28.967 44.0798C28.8059 43.9187 28.5873 43.8281 28.3594 43.8281Z" fill="#070707"></path><path d="M31.7969 43.8281H30.9375C30.7096 43.8281 30.491 43.9187 30.3298 44.0798C30.1687 44.241 30.0781 44.4596 30.0781 44.6875C30.0781 44.9154 30.1687 45.134 30.3298 45.2952C30.491 45.4563 30.7096 45.5469 30.9375 45.5469H31.7969C32.0248 45.5469 32.2434 45.4563 32.4045 45.2952C32.5657 45.134 32.6562 44.9154 32.6562 44.6875C32.6562 44.4596 32.5657 44.241 32.4045 44.0798C32.2434 43.9187 32.0248 43.8281 31.7969 43.8281Z" fill="#070707"></path><path d="M11.1719 3.4375C9.64216 3.4375 8.1468 3.89111 6.87489 4.74098C5.60298 5.59084 4.61164 6.79879 4.02625 8.21206C3.44085 9.62533 3.28768 11.1805 3.58612 12.6808C3.88455 14.1811 4.62118 15.5592 5.70285 16.6409C6.78452 17.7226 8.16265 18.4592 9.66298 18.7576C11.1633 19.0561 12.7184 18.9029 14.1317 18.3175C15.545 17.7321 16.7529 16.7408 17.6028 15.4689C18.4526 14.197 18.9063 12.7016 18.9063 11.1719C18.9039 9.1213 18.0883 7.15537 16.6384 5.70539C15.1884 4.25541 13.2225 3.4398 11.1719 3.4375ZM11.1719 17.1875C9.9821 17.1875 8.81904 16.8347 7.82978 16.1737C6.84051 15.5127 6.06947 14.5732 5.61417 13.474C5.15886 12.3747 5.03973 11.1652 5.27184 9.99829C5.50396 8.83137 6.07689 7.75949 6.91819 6.91819C7.75949 6.07689 8.83137 5.50395 9.99829 5.27184C11.1652 5.03972 12.3747 5.15885 13.474 5.61416C14.5732 6.06947 15.5127 6.84051 16.1737 7.82977C16.8347 8.81904 17.1875 9.9821 17.1875 11.1719C17.1857 12.7668 16.5513 14.2958 15.4236 15.4236C14.2958 16.5513 12.7668 17.1857 11.1719 17.1875Z" fill="#070707"></path><path d="M12.0312 10.816V6.875C12.0312 6.64708 11.9407 6.42849 11.7795 6.26733C11.6184 6.10617 11.3998 6.01562 11.1719 6.01562C10.944 6.01562 10.7254 6.10617 10.5642 6.26733C10.403 6.42849 10.3125 6.64708 10.3125 6.875V11.1719C10.3125 11.2847 10.3347 11.3965 10.3779 11.5008C10.4211 11.605 10.4844 11.6998 10.5642 11.7796L12.2829 13.4983C12.4441 13.6595 12.6627 13.75 12.8906 13.75C13.1186 13.75 13.3371 13.6595 13.4983 13.4983C13.6595 13.3371 13.75 13.1186 13.75 12.8906C13.75 12.6627 13.6595 12.4441 13.4983 12.2829L12.0312 10.816Z" fill="#070707"></path></svg> 