<?xml version="1.0" encoding="UTF-8"?> <svg xmlns="http://www.w3.org/2000/svg" width="55" height="55" viewBox="0 0 55 55" fill="none"><path d="M22.3438 25.7812C23.293 25.7812 24.0625 25.0117 24.0625 24.0625C24.0625 23.1133 23.293 22.3438 22.3438 22.3438C21.3945 22.3438 20.625 23.1133 20.625 24.0625C20.625 25.0117 21.3945 25.7812 22.3438 25.7812Z" fill="#070707"></path><path d="M32.6562 25.7812C33.6055 25.7812 34.375 25.0117 34.375 24.0625C34.375 23.1133 33.6055 22.3438 32.6562 22.3438C31.707 22.3438 30.9375 23.1133 30.9375 24.0625C30.9375 25.0117 31.707 25.7812 32.6562 25.7812Z" fill="#070707"></path><path d="M47.9102 46.8746C46.5932 44.9163 44.7767 43.551 42.7969 43.03L33.5156 40.5872V37.3946C35.8123 35.8553 37.8737 33.5876 38.8813 30.9375H41.25C41.4779 30.9375 41.6965 30.847 41.8577 30.6858C42.0188 30.5246 42.1094 30.306 42.1094 30.0781V36.9531H41.25C41.25 36.7252 41.1595 36.5066 40.9983 36.3455C40.8371 36.1843 40.6185 36.0938 40.3906 36.0938H36.9531C36.7252 36.0938 36.5066 36.1843 36.3455 36.3455C36.1843 36.5066 36.0938 36.7252 36.0938 36.9531V39.4238C36.0938 39.6517 36.1843 39.8703 36.3455 40.0315C36.5066 40.1927 36.7252 40.2832 36.9531 40.2832H40.3906C40.6185 40.2832 40.8371 40.1927 40.9983 40.0315C41.1595 39.8703 41.25 39.6517 41.25 39.4238V38.6719H42.9688C43.1967 38.6719 43.4153 38.5813 43.5764 38.4202C43.7376 38.259 43.8281 38.0404 43.8281 37.8125V30.0352C44.3131 29.9354 44.7488 29.6716 45.0619 29.2881C45.375 28.9045 45.5463 28.4248 45.5469 27.9297V21.9141C45.5463 21.419 45.375 20.9392 45.0619 20.5557C44.7488 20.1722 44.3131 19.9083 43.8281 19.8086V17.1875C43.8281 8.18447 36.503 0.859375 27.5 0.859375C18.497 0.859375 11.1719 8.18447 11.1719 17.1875V19.8086C10.6869 19.9083 10.2512 20.1722 9.9381 20.5557C9.62501 20.9392 9.45373 21.419 9.45312 21.9141V27.9297C9.45369 28.4993 9.68023 29.0454 10.083 29.4482C10.4858 29.851 11.0319 30.0776 11.6016 30.0781H12.8906C12.8906 30.306 12.9812 30.5246 13.1423 30.6858C13.3035 30.847 13.5221 30.9375 13.75 30.9375H16.1187C17.1263 33.5876 19.1877 35.8553 21.4844 37.3946V40.5872L12.2042 43.03C10.2233 43.551 8.40684 44.9163 7.08984 46.8746C5.84268 48.7298 5.15625 50.9158 5.15625 53.031V53.2812C5.15625 53.5092 5.24679 53.7278 5.40796 53.8889C5.56912 54.0501 5.7877 54.1406 6.01562 54.1406H48.9844C49.2123 54.1406 49.4309 54.0501 49.592 53.8889C49.7532 53.7278 49.8438 53.5092 49.8438 53.2812V53.031C49.8438 50.9158 49.1573 48.7298 47.9102 46.8746ZM39.5312 38.5645H37.8125V37.8125H39.5312V38.5645ZM37.8125 20.1212C35.9949 19.5231 34.4319 18.3299 33.376 16.7342C33.2525 16.5516 33.0636 16.4234 32.8483 16.3761C32.633 16.3287 32.4078 16.3657 32.219 16.4796C32.1546 16.5193 25.8554 20.2673 17.1875 20.5058V17.1875C17.1875 14.4525 18.274 11.8294 20.208 9.89546C22.1419 7.96149 24.765 6.875 27.5 6.875C30.235 6.875 32.8581 7.96149 34.792 9.89546C36.726 11.8294 37.8125 14.4525 37.8125 17.1875V20.1212ZM40.3906 29.2188H39.5312V20.625H40.3906V29.2188ZM43.8281 21.9141V27.9297C43.8281 28.0436 43.7829 28.1529 43.7023 28.2335C43.6217 28.3141 43.5124 28.3594 43.3984 28.3594H42.1094V21.4844H43.3984C43.5124 21.4844 43.6217 21.5296 43.7023 21.6102C43.7829 21.6908 43.8281 21.8001 43.8281 21.9141ZM12.8906 28.3594H11.6016C11.4876 28.3594 11.3783 28.3141 11.2977 28.2335C11.2171 28.1529 11.1719 28.0436 11.1719 27.9297V21.9141C11.1719 21.8001 11.2171 21.6908 11.2977 21.6102C11.3783 21.5296 11.4876 21.4844 11.6016 21.4844H12.8906V28.3594ZM15.4688 29.2188H14.6094V20.625H15.4688V29.2188ZM15.4688 17.1875V18.9062H13.75C13.5221 18.9062 13.3035 18.9968 13.1423 19.158C12.9812 19.3191 12.8906 19.5377 12.8906 19.7656V17.1875C12.8906 9.13193 19.4444 2.57812 27.5 2.57812C35.5556 2.57812 42.1094 9.13193 42.1094 17.1875V19.7656C42.1094 19.5377 42.0188 19.3191 41.8577 19.158C41.6965 18.9968 41.4779 18.9062 41.25 18.9062H39.5312V17.1875C39.5312 13.9966 38.2637 10.9364 36.0074 8.68012C33.7511 6.42382 30.6909 5.15625 27.5 5.15625C24.3091 5.15625 21.2489 6.42382 18.9926 8.68012C16.7363 10.9364 15.4688 13.9966 15.4688 17.1875ZM20.8764 34.7596C17.6666 31.8828 17.1875 28.9771 17.1875 27.5V22.2245C24.735 22.0312 30.4895 19.3553 32.4178 18.3358C33.7754 20.0861 35.6711 21.3412 37.8125 21.9076V27.5C37.8125 28.9771 37.3334 31.8828 34.1236 34.7596C32.0547 36.6137 29.454 37.8125 27.5 37.8125C25.546 37.8125 22.9453 36.6137 20.8764 34.7596ZM31.7969 38.3904V40.8472L27.5 44.4286L23.2031 40.8472V38.3904C24.6909 39.122 26.1916 39.5312 27.5 39.5312C28.8084 39.5312 30.3091 39.122 31.7969 38.3904ZM41.25 52.4219V50.7031C41.25 50.4752 41.1595 50.2566 40.9983 50.0955C40.8371 49.9343 40.6185 49.8438 40.3906 49.8438C40.1627 49.8438 39.9441 49.9343 39.783 50.0955C39.6218 50.2566 39.5312 50.4752 39.5312 50.7031V52.4219H15.4688V50.7031C15.4688 50.4752 15.3782 50.2566 15.217 50.0955C15.0559 49.9343 14.8373 49.8438 14.6094 49.8438C14.3815 49.8438 14.1629 49.9343 14.0017 50.0955C13.8405 50.2566 13.75 50.4752 13.75 50.7031V52.4219H6.89756C7.15645 48.8737 9.63359 45.4835 12.6414 44.6929L22.1343 42.1942L26.95 46.2075C27.1044 46.3361 27.299 46.4066 27.5 46.4066C27.701 46.4066 27.8956 46.3361 28.05 46.2075L32.8657 42.1942L42.3597 44.6929C45.3664 45.4835 47.8436 48.8737 48.1024 52.4219H41.25Z" fill="#070707"></path><path d="M30.0781 32.6562C30.0781 32.4283 29.9876 32.2097 29.8264 32.0486C29.6653 31.8874 29.4467 31.7969 29.2188 31.7969H25.7812C25.5533 31.7969 25.3347 31.8874 25.1736 32.0486C25.0124 32.2097 24.9219 32.4283 24.9219 32.6562C24.9219 32.8842 25.0124 33.1028 25.1736 33.2639C25.3347 33.4251 25.5533 33.5156 25.7812 33.5156H29.2188C29.4467 33.5156 29.6653 33.4251 29.8264 33.2639C29.9876 33.1028 30.0781 32.8842 30.0781 32.6562Z" fill="#070707"></path></svg> 