<?xml version="1.0" encoding="UTF-8"?> <svg xmlns="http://www.w3.org/2000/svg" width="85" height="85" viewBox="0 0 85 85" fill="none"><path d="M84.6007 10.771C84.7941 10.5749 84.9247 10.3257 84.9758 10.0551C85.027 9.78446 84.9965 9.50474 84.8881 9.25156C84.7739 9.00366 84.5904 8.79417 84.3596 8.64841C84.1289 8.50266 83.8609 8.42688 83.5881 8.43025L77.1974 8.59451L77.9364 1.50385C77.9617 1.2226 77.9002 0.940338 77.7602 0.695164C77.6201 0.44999 77.4082 0.253711 77.153 0.132824C76.8979 0.0119374 76.6118 -0.0277353 76.3335 0.0191618C76.0551 0.066059 75.7978 0.197268 75.5963 0.395074L63.3349 12.6737C63.2068 12.809 63.1047 12.9667 63.0339 13.1391C55.8167 7.89832 47.0459 5.24048 38.1345 5.5938C29.2231 5.94713 20.6902 9.29105 13.9103 15.0868C7.13049 20.8826 2.49864 28.7926 0.76101 37.5426C-0.976616 46.2926 0.281175 55.373 4.33173 63.3208C8.38229 71.2686 14.9897 77.6209 23.0895 81.3544C31.1893 85.0878 40.3098 85.985 48.9815 83.9014C57.6532 81.8177 65.3711 76.8746 70.8919 69.8683C76.4126 62.8621 79.4146 54.2008 79.4143 45.2798C79.4371 37.2104 76.9765 29.3295 72.3667 22.7074C72.6108 22.6529 72.8341 22.5294 73.0099 22.3515L84.6007 10.771ZM76.6774 45.2798C76.6807 53.6313 73.8563 61.7377 68.6643 68.2779C63.4724 74.8182 56.2191 79.4067 48.0864 81.2957C39.9537 83.1848 31.4212 82.2629 23.8794 78.6804C16.3375 75.0978 10.231 69.0659 6.55495 61.5675C2.87889 54.0691 1.85004 45.5464 3.63607 37.3883C5.42209 29.2301 9.9177 21.9175 16.3902 16.6422C22.8628 11.3669 30.9307 8.43993 39.2791 8.33822C47.6275 8.23651 55.7643 10.9661 62.3633 16.0821L60.8868 22.8648L55.532 28.2211C52.4695 25.3891 48.7017 23.4334 44.6237 22.559C40.5456 21.6845 36.3075 21.9236 32.3536 23.2511C28.3997 24.5786 24.8757 26.9457 22.1509 30.1042C19.4261 33.2626 17.6009 37.0962 16.8667 41.2029C16.1325 45.3097 16.5163 49.5384 17.9779 53.4457C19.4395 57.353 21.925 60.7951 25.1739 63.4111C28.4228 66.027 32.3154 67.7205 36.4437 68.3141C40.5719 68.9076 44.7838 68.3793 48.6377 66.7845C52.8852 65.0174 56.5148 62.0324 59.0693 58.2056C61.6238 54.3788 62.989 49.8813 62.9928 45.2798C63.0109 39.7464 61.0345 34.3918 57.4259 30.1978L62.8231 24.8004L69.4656 23.3508C74.1702 29.6915 76.6998 37.3835 76.6774 45.2798ZM44.6829 42.9527C45.0286 43.6796 45.2063 44.4749 45.2029 45.2798C45.2035 45.9991 45.0623 46.7114 44.7876 47.3761C44.5129 48.0407 44.11 48.6448 43.6018 49.1537C42.5582 50.1495 41.1713 50.705 39.7291 50.705C38.2868 50.705 36.8999 50.1495 35.8563 49.1537C34.8816 48.182 34.3085 46.8788 34.2511 45.5035C34.1937 44.1282 34.6563 42.7817 35.5467 41.7323C36.4372 40.6828 37.6901 40.0073 39.056 39.8403C40.4219 39.6732 41.8007 40.027 42.9176 40.831L38.908 44.8445C38.7806 44.9719 38.6795 45.1233 38.6106 45.2898C38.5416 45.4563 38.5061 45.6348 38.5061 45.815C38.5061 45.9953 38.5416 46.1737 38.6106 46.3403C38.6795 46.5068 38.7806 46.6581 38.908 46.7855C39.0354 46.913 39.1867 47.0141 39.3531 47.0831C39.5196 47.152 39.698 47.1875 39.8782 47.1875C40.0584 47.1875 40.2368 47.152 40.4033 47.0831C40.5698 47.0141 40.7211 46.913 40.8485 46.7855L44.6801 42.9527H44.6829ZM44.8717 38.8845C43.2649 37.5929 41.2317 36.9523 39.175 37.0894C37.1183 37.2265 35.188 38.1314 33.7668 39.6248C32.3455 41.1183 31.537 43.0912 31.5013 45.1528C31.4656 47.2144 32.2054 49.2142 33.574 50.756C34.9427 52.2977 36.8405 53.269 38.8912 53.4772C40.942 53.6855 42.9961 53.1156 44.6467 51.8805C46.2972 50.6454 47.4238 48.8351 47.803 46.8084C48.1823 44.7818 47.7867 42.6865 46.6945 40.9378L55.5005 32.1306C57.8923 35.0103 59.4548 38.4873 60.0201 42.1882C60.5855 45.8891 60.1324 49.6742 58.7096 53.137C57.6686 55.6274 56.1535 57.8916 54.2484 59.8033C51.4044 62.651 47.7867 64.6 43.8447 65.4082C39.9027 66.2164 35.8102 65.8483 32.0756 64.3494C28.341 62.8506 25.129 60.2872 22.8386 56.9777C20.5483 53.6682 19.2805 49.7585 19.1928 45.7343C19.1052 41.7101 20.2015 37.7489 22.3456 34.3427C24.4897 30.9366 27.587 28.2356 31.2528 26.5755C34.9185 24.9154 38.9912 24.3693 42.9646 25.005C46.9381 25.6407 50.6372 27.4302 53.6025 30.1512L44.8717 38.8845ZM71.3678 20.1339L70.5741 20.3119L67.5361 20.9689L63.9371 21.7629L64.7308 18.0807L65.4013 15.0144L65.5518 14.3163L74.8163 5.06287L74.3236 9.85386C74.3013 10.0491 74.3215 10.2469 74.3829 10.4336C74.4443 10.6203 74.5455 10.7914 74.6794 10.9352C74.8154 11.0731 74.9773 11.1828 75.1558 11.258C75.3343 11.3332 75.5258 11.3723 75.7195 11.3733L80.2354 11.2501L71.3678 20.1339Z" fill="#070707"></path><path d="M39.8471 13.8563C40.2091 13.8563 40.5563 13.7143 40.8123 13.4617C41.0683 13.209 41.2121 12.8663 41.2121 12.509C41.2121 12.1517 41.0683 11.809 40.8123 11.5563C40.5563 11.3037 40.2091 11.1617 39.8471 11.1617C35.3636 11.1498 30.9223 12.0155 26.7802 13.7088C22.638 15.402 18.8771 17.8892 15.7153 21.0264C14.1097 22.6107 12.667 24.3482 11.4085 26.2133C11.3041 26.3605 11.2306 26.5268 11.1922 26.7024C11.1539 26.878 11.1515 27.0595 11.1853 27.236C11.2191 27.4125 11.2883 27.5806 11.3889 27.7304C11.4894 27.8801 11.6193 28.0085 11.7709 28.108C11.9225 28.2075 12.0927 28.276 12.2715 28.3096C12.4504 28.3432 12.6342 28.3411 12.8122 28.3035C12.9902 28.266 13.1588 28.1936 13.3081 28.0908C13.4573 27.988 13.5842 27.8567 13.6813 27.7047C14.8388 25.9891 16.1648 24.3903 17.6401 22.9314C20.5498 20.0448 24.0108 17.7564 27.8226 16.1986C31.6344 14.6409 35.7214 13.8447 39.8471 13.8563Z" fill="#070707"></path></svg> 