<?xml version="1.0" encoding="UTF-8"?> <svg xmlns="http://www.w3.org/2000/svg" width="112" height="112" viewBox="0 0 112 112" fill="none"><path d="M56 17.5C34.7703 17.5 17.5 34.7703 17.5 56C17.5 77.2297 34.7703 94.5 56 94.5C77.2297 94.5 94.5 77.2297 94.5 56C94.5 34.7703 77.2297 17.5 56 17.5ZM56 91C36.7019 91 21 75.2981 21 56C21 36.7019 36.7019 21 56 21C75.2981 21 91 36.7019 91 56C91 75.2981 75.2981 91 56 91Z" fill="#070707"></path><path d="M56 15.75C56.4641 15.75 56.9092 15.5656 57.2374 15.2374C57.5656 14.9092 57.75 14.4641 57.75 14V3.5C57.75 3.03587 57.5656 2.59075 57.2374 2.26256C56.9092 1.93437 56.4641 1.75 56 1.75C55.5359 1.75 55.0908 1.93437 54.7626 2.26256C54.4344 2.59075 54.25 3.03587 54.25 3.5V14C54.25 14.4641 54.4344 14.9092 54.7626 15.2374C55.0908 15.5656 55.5359 15.75 56 15.75Z" fill="#070707"></path><path d="M56 96.25C55.5359 96.25 55.0908 96.4344 54.7626 96.7626C54.4344 97.0908 54.25 97.5359 54.25 98V101.5C54.25 101.964 54.4344 102.409 54.7626 102.737C55.0908 103.066 55.5359 103.25 56 103.25C56.4641 103.25 56.9092 103.066 57.2374 102.737C57.5656 102.409 57.75 101.964 57.75 101.5V98C57.75 97.5359 57.5656 97.0908 57.2374 96.7626C56.9092 96.4344 56.4641 96.25 56 96.25Z" fill="#070707"></path><path d="M108.5 54.25H98C97.5359 54.25 97.0908 54.4344 96.7626 54.7626C96.4344 55.0908 96.25 55.5359 96.25 56C96.25 56.4641 96.4344 56.9092 96.7626 57.2374C97.0908 57.5656 97.5359 57.75 98 57.75H108.5C108.964 57.75 109.409 57.5656 109.737 57.2374C110.066 56.9092 110.25 56.4641 110.25 56C110.25 55.5359 110.066 55.0908 109.737 54.7626C109.409 54.4344 108.964 54.25 108.5 54.25Z" fill="#070707"></path><path d="M14.2188 54.25H3.5C3.03587 54.25 2.59075 54.4344 2.26256 54.7626C1.93437 55.0908 1.75 55.5359 1.75 56C1.75 56.4641 1.93437 56.9092 2.26256 57.2374C2.59075 57.5656 3.03587 57.75 3.5 57.75H14.2188C14.6829 57.75 15.128 57.5656 15.4562 57.2374C15.7844 56.9092 15.9688 56.4641 15.9688 56C15.9688 55.5359 15.7844 55.0908 15.4562 54.7626C15.128 54.4344 14.6829 54.25 14.2188 54.25Z" fill="#070707"></path><path d="M56 105C55.5359 105 55.0908 105.184 54.7626 105.513C54.4344 105.841 54.25 106.286 54.25 106.75V108.5C54.25 108.964 54.4344 109.409 54.7626 109.737C55.0908 110.066 55.5359 110.25 56 110.25C56.4641 110.25 56.9092 110.066 57.2374 109.737C57.5656 109.409 57.75 108.964 57.75 108.5V106.75C57.75 106.286 57.5656 105.841 57.2374 105.513C56.9092 105.184 56.4641 105 56 105Z" fill="#070707"></path><path d="M86.936 84.4609C86.7735 84.2984 86.5806 84.1695 86.3682 84.0815C86.1559 83.9936 85.9283 83.9483 85.6984 83.9483C85.4686 83.9483 85.241 83.9936 85.0287 84.0815C84.8163 84.1695 84.6234 84.2984 84.4609 84.4609C84.2983 84.6234 84.1694 84.8164 84.0815 85.0287C83.9935 85.2411 83.9482 85.4687 83.9482 85.6985C83.9482 85.9283 83.9935 86.1559 84.0815 86.3683C84.1694 86.5806 84.2983 86.7736 84.4609 86.9361L91.8857 94.3607C92.0482 94.5232 92.2411 94.6521 92.4534 94.74C92.6657 94.828 92.8933 94.8733 93.1231 94.8733C93.353 94.8733 93.5805 94.828 93.7929 94.74C94.0052 94.6521 94.1981 94.5232 94.3606 94.3607C94.5231 94.1982 94.652 94.0052 94.74 93.7929C94.8279 93.5806 94.8732 93.353 94.8732 93.1232C94.8732 92.8934 94.8279 92.6658 94.74 92.4535C94.652 92.2412 94.5231 92.0482 94.3606 91.8857L86.936 84.4609Z" fill="#070707"></path><path d="M25.064 27.5391C25.3922 27.8673 25.8374 28.0517 26.3015 28.0517C26.7657 28.0517 27.2109 27.8673 27.5391 27.5391C27.8673 27.2109 28.0517 26.7657 28.0517 26.3015C28.0517 25.8373 27.8673 25.3922 27.5391 25.064L25.0642 22.5892C24.736 22.261 24.2908 22.0767 23.8267 22.0767C23.3626 22.0767 22.9174 22.261 22.5892 22.5892C22.261 22.9174 22.0767 23.3626 22.0767 23.8267C22.0767 24.2908 22.261 24.736 22.5892 25.0642L25.064 27.5391Z" fill="#070707"></path><path d="M25.0639 84.4609L17.6393 91.8857C17.3111 92.2139 17.1267 92.6591 17.1267 93.1232C17.1267 93.5873 17.3111 94.0325 17.6393 94.3607C17.9675 94.6889 18.4126 94.8733 18.8768 94.8733C19.3409 94.8733 19.786 94.6889 20.1142 94.3607L27.539 86.9361C27.7016 86.7736 27.8305 86.5806 27.9184 86.3683C28.0064 86.1559 28.0517 85.9283 28.0517 85.6985C28.0517 85.4687 28.0064 85.2411 27.9184 85.0287C27.8305 84.8164 27.7016 84.6234 27.539 84.4609C27.3765 84.2984 27.1836 84.1695 26.9712 84.0815C26.7589 83.9936 26.5313 83.9483 26.3015 83.9483C26.0716 83.9483 25.844 83.9936 25.6317 84.0815C25.4193 84.1695 25.2264 84.2984 25.0639 84.4609Z" fill="#070707"></path><path d="M91.8857 17.6393L84.3062 25.2186C84.1437 25.3811 84.0148 25.5741 83.9268 25.7864C83.8389 25.9987 83.7936 26.2263 83.7936 26.4562C83.7936 26.686 83.8389 26.9136 83.9268 27.1259C84.0148 27.3383 84.1437 27.5312 84.3062 27.6938C84.4687 27.8563 84.6617 27.9852 84.874 28.0731C85.0864 28.1611 85.3139 28.2064 85.5438 28.2064C85.7736 28.2064 86.0012 28.1611 86.2136 28.0731C86.4259 27.9852 86.6188 27.8563 86.7814 27.6938L94.3606 20.1143C94.5231 19.9518 94.652 19.7589 94.74 19.5465C94.8279 19.3342 94.8732 19.1066 94.8732 18.8768C94.8732 18.647 94.8279 18.4194 94.74 18.2071C94.652 17.9948 94.5231 17.8019 94.3606 17.6393C94.1981 17.4768 94.0052 17.3479 93.7928 17.26C93.5805 17.172 93.353 17.1268 93.1231 17.1268C92.8933 17.1268 92.6657 17.172 92.4534 17.26C92.2411 17.3479 92.0482 17.4768 91.8857 17.6393Z" fill="#070707"></path><path d="M18.8768 21.3518C19.205 21.68 19.6501 21.8643 20.1142 21.8643C20.5784 21.8643 21.0235 21.68 21.3517 21.3518C21.6799 21.0236 21.8643 20.5784 21.8643 20.1143C21.8643 19.6501 21.6799 19.205 21.3517 18.8768L20.1142 17.6393C19.786 17.3111 19.3409 17.1268 18.8768 17.1268C18.4126 17.1268 17.9675 17.3111 17.6393 17.6393C17.3111 17.9675 17.1267 18.4127 17.1267 18.8768C17.1267 19.341 17.3111 19.7861 17.6393 20.1143L18.8768 21.3518Z" fill="#070707"></path><path d="M68.0662 55.2169C67.9205 54.9263 67.6969 54.682 67.4203 54.5112C67.1437 54.3405 66.825 54.25 66.5 54.25H61.6L62.9956 35.1269C63.0231 34.7496 62.9277 34.3737 62.7236 34.0553C62.5195 33.7368 62.2177 33.4931 61.8635 33.3606C61.5092 33.2281 61.1216 33.2139 60.7586 33.3201C60.3956 33.4264 60.0769 33.6473 59.85 33.95L44.1 54.95C43.905 55.21 43.7863 55.5191 43.7571 55.8428C43.7279 56.1665 43.7894 56.4919 43.9348 56.7826C44.0801 57.0733 44.3035 57.3178 44.58 57.4886C44.8564 57.6595 45.175 57.75 45.5 57.75H50.5991L49.0066 76.8556C48.9755 77.2338 49.0681 77.6119 49.2706 77.9328C49.4731 78.2538 49.7744 78.5002 50.1291 78.635C50.4838 78.7698 50.8728 78.7856 51.2373 78.6801C51.6018 78.5746 51.9221 78.3534 52.15 78.05L67.9 57.05C68.095 56.7899 68.2138 56.4807 68.2432 56.157C68.2725 55.8333 68.2113 55.5078 68.0662 55.2169ZM52.9987 71.085L54.2434 56.1444C54.2638 55.9032 54.2339 55.6603 54.1555 55.4313C54.0771 55.2023 53.952 54.9921 53.7881 54.814C53.6242 54.6359 53.425 54.4938 53.2033 54.3967C52.9815 54.2996 52.7421 54.2496 52.5 54.25H49L59.0712 40.8231L57.9731 55.8731C57.9557 56.113 57.9879 56.3539 58.0677 56.5808C58.1475 56.8077 58.2733 57.0157 58.4371 57.1918C58.6009 57.3679 58.7992 57.5084 59.0198 57.6044C59.2403 57.7005 59.4782 57.75 59.7187 57.75H63L52.9987 71.085Z" fill="#070707"></path></svg> 