<?xml version="1.0" encoding="UTF-8"?> <svg xmlns="http://www.w3.org/2000/svg" width="485" height="446" viewBox="0 0 485 446" fill="none"><path d="M247.725 187.523C247.725 186.418 246.83 185.523 245.725 185.523C244.621 185.523 243.725 186.418 243.725 187.523H247.725ZM192.247 342.301C191.466 343.082 191.466 344.348 192.247 345.129L204.975 357.857C205.756 358.638 207.022 358.638 207.803 357.857C208.584 357.076 208.584 355.81 207.803 355.029L196.49 343.715L207.803 332.401C208.584 331.62 208.584 330.354 207.803 329.573C207.022 328.792 205.756 328.792 204.975 329.573L192.247 342.301ZM295.057 345.129C295.838 344.348 295.838 343.082 295.057 342.301L282.329 329.573C281.548 328.792 280.281 328.792 279.5 329.573C278.719 330.354 278.719 331.62 279.5 332.401L290.814 343.715L279.5 355.029C278.719 355.81 278.719 357.076 279.5 357.857C280.281 358.638 281.548 358.638 282.329 357.857L295.057 345.129ZM243.725 210.099C243.725 211.204 244.621 212.099 245.725 212.099C246.83 212.099 247.725 211.204 247.725 210.099H243.725ZM247.725 287.965C247.725 286.86 246.83 285.965 245.725 285.965C244.621 285.965 243.725 286.86 243.725 287.965H247.725ZM245.725 341.715H193.661V345.715H245.725V341.715ZM245.725 345.715H293.643V341.715H245.725V345.715ZM243.725 187.523V210.099H247.725V187.523H243.725ZM243.725 287.965V343.715H247.725V287.965H243.725Z" fill="white"></path><circle cx="88.6114" cy="357.998" r="88.0021" fill="black"></circle><circle cx="396.388" cy="357.998" r="88.0021" fill="black"></circle><path d="M243.882 263.531C244.704 263.531 245.371 262.865 245.371 262.042C245.371 261.22 244.704 260.554 243.882 260.554C243.06 260.554 242.393 261.22 242.393 262.042C242.393 262.865 243.06 263.531 243.882 263.531Z" fill="white"></path><path d="M260.637 272.091C261.459 272.091 262.126 271.424 262.126 270.602C262.126 269.78 261.459 269.113 260.637 269.113C259.815 269.113 259.148 269.78 259.148 270.602C259.148 271.424 259.815 272.091 260.637 272.091Z" fill="white"></path><path d="M278.53 249.805C276.316 247.371 273.298 245.839 270.034 245.491C269.855 242.917 269.196 240.437 268.072 238.122C266.98 235.873 265.495 233.863 263.656 232.148C259.881 228.626 254.949 226.686 249.77 226.686H249.768C246.938 226.686 244.199 227.256 241.625 228.379C240.388 228.918 239.202 229.583 238.094 230.359C236.998 231.125 235.976 232.004 235.051 232.971C234.052 232.754 233.03 232.644 232.01 232.644H232.005C228.428 232.644 225.001 233.964 222.359 236.362C219.734 238.744 218.098 241.985 217.751 245.49C214.481 245.832 211.458 247.362 209.24 249.798C207.004 252.254 205.773 255.434 205.772 258.752C205.772 260.555 206.128 262.303 206.826 263.947C207.502 265.536 208.468 266.962 209.699 268.187C210.929 269.411 212.362 270.373 213.958 271.044C215.609 271.738 217.363 272.09 219.17 272.09H253.938C254.76 272.09 255.427 271.422 255.427 270.602C255.427 269.781 254.76 269.113 253.938 269.113H219.17C216.386 269.113 213.769 268.034 211.798 266.076C209.833 264.117 208.749 261.517 208.749 258.752C208.749 255.989 209.833 253.388 211.798 251.429C213.769 249.472 216.386 248.393 219.17 248.393C219.561 248.393 219.945 248.233 220.222 247.956C220.499 247.679 220.659 247.295 220.659 246.904C220.659 243.894 221.839 241.061 223.98 238.929C226.125 236.797 228.974 235.623 232.005 235.621C233.065 235.621 235.416 236.12 235.554 236.12C235.983 236.12 236.391 235.934 236.674 235.609C239.973 231.831 244.747 229.665 249.77 229.663C254.401 229.665 258.754 231.459 262.031 234.716C265.303 237.973 267.105 242.302 267.105 246.904C267.105 247.295 267.265 247.679 267.542 247.956C267.819 248.233 268.203 248.393 268.594 248.393C271.378 248.393 273.995 249.472 275.966 251.429C277.931 253.388 279.013 255.989 279.015 258.752C279.013 261.516 277.931 264.117 275.966 266.076C273.995 268.034 271.378 269.113 268.594 269.113H267.336C266.516 269.113 265.848 269.782 265.848 270.602C265.848 271.422 266.516 272.091 267.336 272.091H268.594C270.401 272.091 272.155 271.738 273.808 271.044C275.402 270.373 276.835 269.411 278.065 268.188C279.296 266.962 280.262 265.536 280.938 263.948C281.636 262.303 281.992 260.555 281.992 258.752C281.991 255.437 280.761 252.26 278.53 249.805Z" fill="white"></path><path d="M230.179 248.258C229.596 248.838 229.593 249.781 230.172 250.364C230.752 250.947 231.695 250.95 232.278 250.37C238.676 244.009 249.088 244.009 255.486 250.37C255.777 250.659 256.156 250.803 256.536 250.803C256.918 250.803 257.301 250.656 257.592 250.364C258.171 249.781 258.168 248.838 257.585 248.258C250.029 240.747 237.735 240.747 230.179 248.258Z" fill="white"></path><path d="M252.293 255.12C252.678 255.12 253.064 254.971 253.355 254.675C253.931 254.088 253.923 253.146 253.337 252.569C248.123 247.446 239.641 247.446 234.428 252.569C233.841 253.146 233.833 254.088 234.409 254.675C234.986 255.261 235.928 255.269 236.515 254.693C240.577 250.701 247.187 250.701 251.25 254.693C251.54 254.978 251.916 255.12 252.293 255.12Z" fill="white"></path><path d="M238.578 256.83C238.001 257.416 238.009 258.359 238.595 258.935C239.182 259.512 240.124 259.504 240.701 258.918C241.552 258.053 242.682 257.576 243.882 257.576C245.083 257.576 246.212 258.053 247.064 258.918C247.355 259.214 247.74 259.363 248.125 259.363C248.502 259.363 248.879 259.22 249.169 258.935C249.755 258.359 249.763 257.416 249.186 256.83C247.771 255.391 245.887 254.599 243.882 254.599C241.877 254.599 239.993 255.391 238.578 256.83Z" fill="white"></path><circle cx="243.421" cy="88.0021" r="88.0021" fill="#6AEDB2"></circle><mask id="mask0" maskUnits="userSpaceOnUse" x="155" y="0" width="177" height="177"><circle cx="243.421" cy="88.0021" r="88.0021" fill="#F64740"></circle></mask><g mask="url(#mask0)"><path d="M279.82 54.3677H207.944C204.279 54.3721 200.766 55.8298 198.175 58.421C195.584 61.0122 194.126 64.5254 194.122 68.19V211.942C194.126 215.607 195.584 219.12 198.175 221.711C200.766 224.302 204.279 225.76 207.944 225.764H279.82C283.484 225.76 286.998 224.302 289.589 221.711C292.18 219.12 293.638 215.607 293.642 211.942V68.19C293.638 64.5254 292.18 61.0122 289.589 58.421C286.998 55.8298 283.484 54.3721 279.82 54.3677ZM258.76 59.8966L255.996 65.4255H231.768L229.004 59.8966H258.76ZM288.113 211.942C288.113 214.142 287.24 216.251 285.684 217.806C284.129 219.362 282.019 220.235 279.82 220.235H207.944C205.744 220.235 203.635 219.362 202.08 217.806C200.524 216.251 199.651 214.142 199.651 211.942V68.19C199.651 65.9904 200.524 63.881 202.08 62.3257C203.635 60.7704 205.744 59.8966 207.944 59.8966H222.822L227.585 69.4257C227.815 69.8852 228.168 70.2717 228.605 70.5417C229.042 70.8118 229.546 70.9547 230.06 70.9545H257.704C258.22 70.9573 258.727 70.8156 259.167 70.5454C259.606 70.2752 259.962 69.8874 260.192 69.4257L264.942 59.8966H279.82C282.019 59.8966 284.129 60.7704 285.684 62.3257C287.24 63.881 288.113 65.9904 288.113 68.19V211.942Z" fill="white"></path><path d="M261.391 134.537H250.333V112.421C250.333 111.837 250.148 111.268 249.805 110.796C249.462 110.324 248.978 109.972 248.423 109.791C247.868 109.611 247.269 109.611 246.714 109.791C246.159 109.972 245.675 110.323 245.332 110.795L223.216 141.205C222.916 141.617 222.736 142.104 222.696 142.613C222.656 143.121 222.758 143.631 222.989 144.085C223.22 144.539 223.573 144.921 224.008 145.187C224.443 145.454 224.943 145.595 225.453 145.595H236.51V167.71C236.51 168.294 236.695 168.863 237.038 169.335C237.381 169.808 237.865 170.159 238.42 170.34C238.976 170.52 239.574 170.52 240.129 170.34C240.684 170.16 241.168 169.808 241.511 169.336L263.627 138.927C263.927 138.514 264.107 138.027 264.147 137.519C264.187 137.01 264.086 136.501 263.854 136.046C263.623 135.592 263.27 135.21 262.835 134.944C262.401 134.678 261.901 134.537 261.391 134.537ZM242.039 159.21V142.83C242.039 142.097 241.748 141.394 241.23 140.875C240.711 140.357 240.008 140.066 239.275 140.066H230.882L244.804 120.922V137.301C244.804 138.034 245.095 138.738 245.614 139.256C246.132 139.774 246.835 140.066 247.568 140.066H255.961L242.039 159.21Z" fill="white"></path><path d="M237.321 103.318C237.842 103.822 238.54 104.101 239.265 104.094C239.99 104.088 240.683 103.797 241.196 103.285C241.708 102.772 241.999 102.079 242.005 101.354C242.012 100.629 241.733 99.9309 241.229 99.4095L238.465 96.645C237.944 96.1415 237.245 95.8628 236.52 95.8691C235.796 95.8754 235.102 96.1662 234.59 96.6787C234.077 97.1913 233.786 97.8846 233.78 98.6095C233.774 99.3343 234.052 100.033 234.556 100.554L237.321 103.318Z" fill="white"></path><path d="M247.568 101.364C248.301 101.364 249.005 101.072 249.523 100.554C250.041 100.035 250.333 99.3323 250.333 98.5991V95.8347C250.333 95.1015 250.041 94.3983 249.523 93.8799C249.005 93.3614 248.301 93.0702 247.568 93.0702C246.835 93.0702 246.132 93.3614 245.613 93.8799C245.095 94.3983 244.804 95.1015 244.804 95.8347V98.5991C244.804 99.3323 245.095 100.035 245.613 100.554C246.132 101.072 246.835 101.364 247.568 101.364Z" fill="white"></path><path d="M255.862 104.128C256.595 104.128 257.298 103.837 257.816 103.318L260.58 100.554C261.084 100.033 261.363 99.3343 261.356 98.6095C261.35 97.8846 261.059 97.1913 260.547 96.6787C260.034 96.1662 259.341 95.8754 258.616 95.8691C257.891 95.8628 257.193 96.1415 256.672 96.645L253.907 99.4095C253.521 99.7961 253.257 100.289 253.151 100.825C253.044 101.361 253.099 101.917 253.308 102.422C253.517 102.927 253.871 103.359 254.326 103.662C254.78 103.966 255.315 104.128 255.862 104.128Z" fill="white"></path></g><mask id="mask1" maskUnits="userSpaceOnUse" x="0" y="269" width="177" height="177"><circle cx="88.6114" cy="357.998" r="88.0021" fill="#070707"></circle></mask><g mask="url(#mask1)"><path d="M83.4824 338.197C81.7045 339.973 84.4524 342.723 86.2303 340.946C87.7973 339.381 90.3469 339.381 91.9139 340.946C93.6915 342.723 96.4397 339.973 94.6618 338.197C91.5795 335.117 86.5641 335.117 83.4824 338.197Z" fill="white"></path><path d="M100.21 335.752C101.842 335.752 102.739 333.587 101.584 332.434C94.6849 325.539 83.4586 325.539 76.5595 332.434C74.7816 334.21 77.5296 336.96 79.3075 335.183C84.6914 329.803 93.452 329.803 98.8362 335.183C99.2157 335.563 99.7127 335.752 100.21 335.752Z" fill="white"></path><path d="M72.1131 328.807C81.4641 319.462 96.6791 319.462 106.03 328.807C107.808 330.583 110.556 327.833 108.778 326.057C97.9119 315.199 80.2315 315.199 69.3654 326.057C67.5876 327.833 70.3355 330.583 72.1131 328.807Z" fill="white"></path><path d="M151.325 422.42V410.603C151.325 403.219 147.61 396.69 141.954 392.777H145.808C149.48 392.777 152.467 389.789 152.467 386.102C152.467 382.43 149.48 379.443 145.808 379.443H136.196L131.978 363.528C131.973 363.506 131.965 363.484 131.96 363.462C131.958 363.455 131.956 363.448 131.954 363.442C130.229 357.092 124.449 352.665 117.862 352.665H76.0272C73.5141 352.665 73.5141 356.553 76.0272 356.553H117.862C121.821 356.553 125.384 358.732 127.238 362.082H50.9054C52.76 358.732 56.3222 356.553 60.2815 356.553H65.8331C68.3463 356.553 68.3463 352.665 65.8331 352.665H60.2815C53.6953 352.665 47.9148 357.092 46.1906 363.44C46.188 363.449 46.1859 363.457 46.1833 363.465C46.1776 363.486 46.1709 363.507 46.1655 363.528L41.948 379.443H32.4221C28.7502 379.443 25.7628 382.43 25.7628 386.117C25.7628 389.789 28.7502 392.777 32.4221 392.777H36.1904C30.5335 396.69 26.8184 403.219 26.8184 410.603V422.42C24.474 422.986 22.7251 425.095 22.7251 427.611V433.285C22.7251 436.232 25.1227 438.629 28.0699 438.629H34.0398V445.529C34.0398 448.318 36.3088 450.587 39.098 450.587H53.8251C56.6143 450.587 58.8833 448.318 58.8833 445.529V438.629H119.261V445.529C119.261 448.318 121.53 450.587 124.319 450.587H139.046C141.835 450.587 144.104 448.318 144.104 445.529V438.629H150.074C153.021 438.629 155.419 436.232 155.419 433.285V427.611C155.419 425.095 153.67 422.986 151.325 422.42ZM49.5401 365.969H128.604L134.858 389.572C133.192 389.16 131.451 388.937 129.659 388.937H48.4845C46.6923 388.937 44.952 389.16 43.2856 389.572L49.5401 365.969ZM145.808 383.33C147.336 383.33 148.58 384.574 148.58 386.117C148.58 387.646 147.336 388.889 145.808 388.889H138.699L137.226 383.33H145.808V383.33ZM29.65 386.102C29.65 384.574 30.8935 383.33 32.4218 383.33H40.9176L39.4445 388.889H32.4221C30.8935 388.889 29.65 387.646 29.65 386.102ZM54.9958 445.529C54.9958 446.174 54.4707 446.7 53.8251 446.7H39.0977C38.4524 446.7 37.9271 446.175 37.9271 445.529V438.629H54.9955V445.529H54.9958ZM140.216 445.529C140.216 446.174 139.691 446.7 139.046 446.7H124.319C123.673 446.7 123.148 446.175 123.148 445.529V438.629H140.216V445.529ZM151.531 433.285C151.531 434.089 150.878 434.742 150.074 434.742H28.0699C27.2662 434.742 26.6126 434.089 26.6126 433.285V427.611C26.6126 426.807 27.2662 426.154 28.0699 426.154H124.434C126.947 426.154 126.947 422.266 124.434 422.266H30.7059V410.603C30.7059 400.8 38.6812 392.825 48.4845 392.825H129.659C139.462 392.825 147.438 400.8 147.438 410.603V422.266H134.688C132.175 422.266 132.175 426.154 134.688 426.154H150.074C150.878 426.154 151.531 426.807 151.531 427.611V433.285Z" fill="white"></path><path d="M48.8611 399.521C43.5836 399.521 39.2903 403.836 39.2903 409.139C39.2903 414.443 43.5836 418.757 48.8611 418.757C54.1385 418.757 58.4318 414.443 58.4318 409.139C58.4318 403.836 54.1385 399.521 48.8611 399.521ZM48.8611 414.87C45.7275 414.87 43.1778 412.299 43.1778 409.139C43.1778 405.98 45.7272 403.409 48.8611 403.409C51.9949 403.409 54.5443 405.98 54.5443 409.139C54.5443 412.299 51.9949 414.87 48.8611 414.87Z" fill="white"></path><path d="M138.853 409.139C138.853 403.836 134.56 399.521 129.283 399.521C124.005 399.521 119.712 403.836 119.712 409.139C119.712 414.443 124.005 418.757 129.283 418.757C134.56 418.757 138.853 414.443 138.853 409.139ZM129.283 414.87C126.149 414.87 123.599 412.299 123.599 409.139C123.599 405.98 126.149 403.409 129.283 403.409C132.416 403.409 134.966 405.98 134.966 409.139C134.966 412.299 132.416 414.87 129.283 414.87Z" fill="white"></path><path d="M110.172 403.773H67.9718C66.8984 403.773 66.0281 404.644 66.0281 405.717V414.551C66.0281 415.624 66.8984 416.494 67.9718 416.494H110.172C111.245 416.494 112.115 415.624 112.115 414.551V405.717C112.116 404.644 111.245 403.773 110.172 403.773ZM108.228 412.607H69.9156V407.661H108.228V412.607H108.228Z" fill="white"></path></g><mask id="mask2" maskUnits="userSpaceOnUse" x="308" y="269" width="177" height="177"><circle cx="396.388" cy="357.998" r="88.0021" fill="#070707"></circle></mask><g mask="url(#mask2)"><path d="M433.152 397.695V389.28C439.292 389.114 444.236 384.065 444.236 377.879V370.829C446.195 370.818 447.787 369.221 447.787 367.258V358.792C447.787 356.822 446.185 355.22 444.216 355.22H440.839V341.284C440.839 340.082 439.865 339.107 438.662 339.107C437.46 339.107 436.485 340.082 436.485 341.284V355.22H425.465V341.284C425.465 340.082 424.491 339.107 423.288 339.107C422.086 339.107 421.111 340.082 421.111 341.284V355.22H417.74C415.768 355.22 414.164 356.822 414.164 358.792V367.258C414.164 369.219 415.755 370.815 417.715 370.829V377.879C417.715 384.066 422.659 389.115 428.798 389.28V397.695C419.17 398.781 411.661 406.981 411.661 416.904C411.661 426.83 419.17 435.032 428.798 436.119V437.836C428.798 442.457 425.043 446.217 420.428 446.217H381.555C376.94 446.217 373.185 442.457 373.185 437.836V431.676H392.651C395.942 431.676 398.619 428.997 398.619 425.704V399.995C398.619 398.793 397.645 397.818 396.442 397.818C395.24 397.818 394.265 398.793 394.265 399.995V425.704C394.265 426.581 393.526 427.322 392.651 427.322H349.371C348.496 427.322 347.757 426.581 347.757 425.704V354.731C347.757 353.854 348.496 353.113 349.371 353.113H355.659H386.357H392.651C393.526 353.113 394.265 353.854 394.265 354.731V380.446C394.265 381.648 395.24 382.623 396.442 382.623C397.645 382.623 398.619 381.648 398.619 380.446V354.731C398.619 351.438 395.942 348.759 392.651 348.759H388.534V346.11C388.534 342.249 385.395 339.107 381.537 339.107H360.479C356.621 339.107 353.482 342.249 353.482 346.11V348.759H349.371C346.08 348.759 343.403 351.438 343.403 354.731V425.704C343.403 428.997 346.08 431.676 349.371 431.676H368.831V437.836C368.831 444.859 374.539 450.572 381.555 450.572H420.428C427.444 450.572 433.152 444.859 433.152 437.836V436.119C442.784 435.033 450.295 426.831 450.295 416.904C450.295 406.98 442.784 398.781 433.152 397.695ZM357.836 346.11C357.836 344.65 359.022 343.461 360.479 343.461H381.537C382.994 343.461 384.18 344.65 384.18 346.11V348.759H357.836V346.11ZM418.518 359.574H443.432V366.476H418.518V359.574ZM422.069 377.879V370.83H439.882V377.879C439.882 381.769 436.724 384.933 432.843 384.933H429.107C425.226 384.933 422.069 381.769 422.069 377.879ZM430.975 431.889C422.726 431.889 416.015 425.167 416.015 416.904C416.015 408.645 422.726 401.926 430.975 401.926C439.228 401.926 445.941 408.645 445.941 416.904C445.941 425.167 439.228 431.889 430.975 431.889Z" fill="white"></path><path d="M434.569 414.727H430.896L433.799 408.889C434.335 407.812 433.896 406.505 432.82 405.97C431.743 405.434 430.436 405.873 429.901 406.95L425.432 415.935C424.726 417.357 425.798 419.081 427.386 419.081H431.058L428.156 424.927C427.621 426.004 428.061 427.311 429.138 427.845C429.449 428 429.779 428.073 430.104 428.073C430.905 428.073 431.676 427.629 432.056 426.863L436.519 417.872C436.56 417.79 436.594 417.704 436.624 417.618C437.106 416.231 436.042 414.727 434.569 414.727Z" fill="white"></path><path d="M354.715 357.904C353.513 357.904 352.538 358.879 352.538 360.081V420.354C352.538 421.556 353.513 422.531 354.715 422.531H387.307C388.509 422.531 389.484 421.556 389.484 420.354V360.081C389.484 358.879 388.509 357.904 387.307 357.904H354.715ZM385.129 418.176H356.892V407.732H385.129V418.176ZM385.129 403.378H356.892V393.675H385.129V403.378ZM385.129 389.321H356.892V378.334H385.129V389.321ZM385.129 373.98H356.892V362.258H385.129V373.98Z" fill="white"></path><path d="M396.442 388.044C395.24 388.044 394.265 389.019 394.265 390.221V390.227C394.265 391.429 395.24 392.401 396.442 392.401C397.645 392.401 398.619 391.423 398.619 390.221C398.619 389.018 397.645 388.044 396.442 388.044Z" fill="white"></path></g></svg> 