<?xml version="1.0" encoding="UTF-8"?> <svg xmlns="http://www.w3.org/2000/svg" width="151" height="172" viewBox="0 0 151 172" fill="none"><path fill-rule="evenodd" clip-rule="evenodd" d="M29.3065 124.2H36.3755L29.9078 115.576C30.6283 115.361 31.4154 115.023 32.1644 114.51C33.8975 113.32 35.3255 111.249 35.3255 107.91C35.3255 105.82 34.6236 103.429 32.9154 101.793L32.9114 101.789C31.4644 100.417 29.5192 99.6001 26.1755 99.6001H18.1055V124.2H23.7455V116.383L29.3065 124.2ZM29.132 114.542C28.5677 114.675 28.0823 114.72 27.7655 114.72L27.7654 114.72C29.2054 114.72 34.1254 113.79 34.1254 107.91C34.1254 106.892 33.9367 105.82 33.5345 104.836C33.9367 105.82 34.1255 106.892 34.1255 107.91C34.1255 112.496 31.1325 114.071 29.132 114.542ZM19.3055 123V123H22.5455V112.71H22.6055L22.6054 112.71H22.5454V123H19.3055ZM29.9254 123H33.9754L33.9755 123H29.9255L29.9254 123ZM29.1306 104.59C28.373 104.091 27.338 103.77 25.9654 103.77H22.5454V112.26H22.5455V103.77H25.9655C27.338 103.77 28.373 104.091 29.1306 104.59ZM23.7455 104.97V111.06H24.7655C25.4242 111.06 26.7431 111.037 27.8711 110.581C28.4185 110.36 28.8606 110.06 29.1654 109.666C29.4583 109.287 29.6855 108.743 29.6855 107.91C29.6855 107.237 29.4564 106.518 28.9334 105.975C28.4285 105.45 27.5342 104.97 25.9655 104.97H23.7455ZM46.918 124.2H61.288V118.83H52.558V114.48H61.288V109.11H52.558V104.97H61.288V99.6001H46.918V124.2ZM60.088 123V120.03H60.0879V123H48.118V123H60.088ZM60.088 100.8H60.0879V103.77H51.3579V110.31H51.358V103.77H60.088V100.8ZM60.088 110.31H60.0879V113.28H51.3579V120.03H51.358V113.28H60.088V110.31ZM79.4439 109.848L88.6271 124.2H93.8439V99.6001H88.2039V113.68L79.2009 99.6001H73.8039V124.2H79.4439V109.848ZM92.6439 100.8L92.6439 123H89.2839L89.2839 123H92.6439V100.8ZM78.3039 105.84L78.3039 105.84H78.2439V123L75.0039 123H78.2439V105.84H78.3039ZM113.224 107.049C114.377 105.613 116.121 104.55 118.592 104.55C123.252 104.55 125.702 108.506 125.702 111.99C125.702 113.467 125.145 115.312 123.964 116.77C122.811 118.192 121.066 119.25 118.592 119.25C116.13 119.25 114.386 118.204 113.232 116.781C112.051 115.323 111.482 113.457 111.482 111.9C111.482 110.389 112.043 108.52 113.224 107.049ZM131.342 111.96C131.342 104.99 125.877 99.1801 118.592 99.1801C111.103 99.1801 105.842 105.255 105.842 111.9C105.842 118.62 111.267 124.62 118.592 124.62C125.879 124.62 131.342 118.658 131.342 111.96ZM14.9733 151.799C15.2925 152.615 15.45 153.53 15.45 154.52C15.45 158.48 12.93 161.24 7.61995 161.24H4.43995V170L1.2 170H4.44V161.24H7.62C12.93 161.24 15.45 158.48 15.45 154.52C15.45 153.53 15.2925 152.615 14.9733 151.799ZM5.64 171.2V162.44H7.62C10.4731 162.44 12.7566 161.697 14.3368 160.25C15.9297 158.791 16.65 156.761 16.65 154.52C16.65 152.28 15.9297 150.249 14.3368 148.79C12.7566 147.343 10.4731 146.6 7.62 146.6H0V171.2H5.64ZM5.64 151.97H7.62C9.23546 151.97 10.0257 152.423 10.4237 152.847C10.8389 153.29 11.01 153.895 11.01 154.52C11.01 155.145 10.8389 155.75 10.4237 156.193C10.0257 156.617 9.23546 157.07 7.62 157.07H5.64V151.97ZM53.4478 158.96C53.4478 151.99 47.9828 146.18 40.6978 146.18C33.2087 146.18 27.9478 152.255 27.9478 158.9C27.9478 165.62 33.3728 171.62 40.6978 171.62C47.9848 171.62 53.4478 165.658 53.4478 158.96ZM47.8078 158.99C47.8078 160.467 47.25 162.312 46.0692 163.77C44.9168 165.192 43.1717 166.25 40.6978 166.25C38.2356 166.25 36.4915 165.204 35.3375 163.781C34.1561 162.323 33.5878 160.457 33.5878 158.9C33.5878 157.389 34.1483 155.52 35.3297 154.049C36.4829 152.613 38.227 151.55 40.6978 151.55C45.3572 151.55 47.8078 155.506 47.8078 158.99ZM78.383 159.157L81.5043 171.2H86.1934L93.0747 146.6H87.2654L83.8549 159.697L80.5154 146.6H76.2821L72.9009 159.77L69.567 146.6H63.6912L70.5726 171.2H75.2616L78.383 159.157ZM71.483 170H74.333L78.353 154.49H78.413L78.3529 154.49L74.3329 170L71.483 170ZM82.433 170H85.283L91.493 147.8L91.4929 147.8L85.2829 170L82.433 170ZM104.73 146.6V171.2H119.1V165.83H110.37V161.48H119.1V156.11H110.37V151.97H119.1V146.6H104.73ZM143.517 171.2H150.586L144.119 162.576C144.839 162.361 145.626 162.023 146.375 161.51C148.108 160.32 149.536 158.249 149.536 154.91C149.536 152.82 148.835 150.429 147.126 148.793L147.122 148.789C145.675 147.417 143.73 146.6 140.386 146.6H132.316V171.2H137.956V163.383L143.517 171.2ZM136.756 159.26V150.77H140.176L136.756 150.77L136.756 159.26ZM137.956 151.97V158.06H138.976C139.635 158.06 140.954 158.037 142.082 157.581C142.629 157.36 143.072 157.06 143.376 156.666C143.669 156.287 143.896 155.743 143.896 154.91C143.896 154.237 143.667 153.518 143.144 152.975C142.639 152.45 141.745 151.97 140.176 151.97H137.956ZM4.44 158.27V150.77H7.62C9.00375 150.77 9.99516 151.065 10.6939 151.522C9.99515 151.065 9.00374 150.77 7.61995 150.77H4.43995V158.27H4.44ZM50.3336 152.514C51.5517 154.364 52.2478 156.586 52.2478 158.96C52.2478 163.879 48.9859 168.364 44.2274 169.878C48.9859 168.364 52.2478 163.879 52.2478 158.96C52.2478 156.586 51.5517 154.364 50.3336 152.514ZM33.073 162.269C32.6122 161.139 32.3878 159.964 32.3878 158.9C32.3878 155.36 34.9678 150.35 40.6978 150.35C42.0778 150.35 43.2872 150.644 44.325 151.147C43.2872 150.644 42.0778 150.35 40.6978 150.35C34.9678 150.35 32.3878 155.36 32.3878 158.9C32.3878 159.964 32.6122 161.14 33.073 162.269ZM105.93 170H117.9V167.03L117.9 170L105.93 170ZM109.17 167.03V160.28H117.9V157.31L117.9 160.28H109.17L109.17 167.03ZM109.17 157.31V150.77H117.9V147.8L117.9 150.77H109.17L109.17 157.31ZM136.756 170L133.516 170H136.756V159.71H136.816L136.756 159.71V170Z" fill="#6AEDB2"></path><path d="M51.8145 47.5L87.8145 0L80.3145 30.5H96.8145L59.8145 79L68.3145 47.5H51.8145Z" fill="#A6A6A6"></path><path fill-rule="evenodd" clip-rule="evenodd" d="M72.8145 10.5679C72.1422 10.5679 73.4753 10.5229 72.8145 10.5679C57.7311 11.5953 45.8145 24.156 45.8145 39.5C45.8145 49.3824 50.7551 58.112 58.3145 63.352C58.4288 63.4313 58.1989 63.2743 58.3145 63.352L56.8145 69.5C56.7443 69.4528 55.1722 68.4725 55.1023 68.4249C45.879 62.128 39.8145 51.5228 39.8145 39.5C39.8145 20.337 55.215 4.77094 74.3145 4.5035C74.4808 4.50117 77.1475 4.5 77.3145 4.5L72.8145 10.5679Z" fill="#A6A6A6"></path><path fill-rule="evenodd" clip-rule="evenodd" d="M76.3145 68.4321C76.9867 68.4321 75.6536 68.4771 76.3145 68.4321C91.3978 67.4047 103.314 54.844 103.314 39.5C103.314 29.6176 98.3738 20.888 90.8145 15.648C90.7001 15.5687 90.93 15.7257 90.8145 15.648L92.3145 9.5C92.3846 9.54717 93.9568 10.5275 94.0266 10.5751C103.25 16.872 109.314 27.4772 109.314 39.5C109.314 58.663 93.9139 74.2291 74.8145 74.4965C74.6481 74.4988 71.9814 74.5 71.8145 74.5L76.3145 68.4321Z" fill="#A6A6A6"></path></svg> 