<?xml version="1.0" encoding="UTF-8"?> <svg xmlns="http://www.w3.org/2000/svg" width="80" height="80" viewBox="0 0 80 80" fill="none"><g clip-path="url(#clip0)"><path d="M79.6728 54.6529C78.8202 52.0896 76.4212 50.3606 73.7195 50.3631H49.4716C48.8638 49.5584 48.0729 48.911 47.165 48.4731L39.8162 45.0145C37.494 43.9229 34.8728 43.6397 32.3712 44.2104L18.0398 47.496V46.505C18.0398 45.7934 17.4628 45.2164 16.7512 45.2164H1.28856C0.576956 45.2164 0 45.7934 0 46.505V70.98C0 71.6916 0.576956 72.2686 1.28856 72.2686H16.7512C17.4628 72.2686 18.0398 71.6916 18.0398 70.98V70.2583L43.2956 74.6733C43.9512 74.7884 44.6156 74.8463 45.2813 74.8457C46.8108 74.8425 48.3252 74.5361 49.7359 73.9434L76.2299 62.3804C79.2135 61.0931 80.7109 57.732 79.6728 54.6529ZM2.57711 69.6915V47.7936H15.4627V69.6915H2.57711ZM75.1987 60.0273L48.7254 71.579C47.1518 72.2365 45.4222 72.429 43.7423 72.1346L18.0398 67.6429V50.1404L32.9444 46.7214C34.8841 46.2823 36.9151 46.5019 38.7158 47.3456L46.0608 50.8054C47.0417 51.2704 47.7779 52.133 48.0836 53.1749C48.3982 54.2376 48.2453 55.3846 47.6621 56.3277C46.663 57.9642 44.5829 58.572 42.8602 57.7314L33.9341 53.3498C33.2936 53.0365 32.5203 53.3014 32.207 53.9419C31.893 54.5824 32.1585 55.3556 32.799 55.6696L41.7245 60.0506C44.6364 61.4819 48.1585 60.4602 49.8516 57.6924C50.7224 56.2711 51.0093 54.5685 50.6532 52.9402H73.7182C75.4705 52.9377 76.9843 54.1665 77.3423 55.8816C77.7003 57.5974 76.8043 59.3283 75.1974 60.0273H75.1987Z" fill="#070707"></path><path d="M48.965 29.6293C47.2486 29.6293 45.6857 28.6239 45.6857 27.5209C45.6857 26.8093 45.1088 26.2324 44.3972 26.2324C43.6856 26.2324 43.1086 26.8093 43.1086 27.5209C43.1086 29.7488 45.0673 31.6125 47.6765 32.0837V33.612C47.6765 34.3236 48.2534 34.9005 48.965 34.9005C49.6766 34.9005 50.2536 34.3236 50.2536 33.612V32.0655C52.6048 31.7226 54.3929 29.7771 54.537 27.4051C54.537 24.3329 51.7177 23.0796 49.4507 22.0729C47.2857 21.1102 45.9714 20.4376 45.9714 19.2044C45.9714 17.9983 47.343 16.979 48.9663 16.979C50.6827 16.979 52.2455 17.9845 52.2455 19.0874C52.2455 19.799 52.8225 20.376 53.5341 20.376C54.2457 20.376 54.8227 19.799 54.8227 19.0874C54.8227 16.8595 52.864 14.9965 50.2548 14.5246V12.9951C50.2548 12.2835 49.6779 11.7065 48.9663 11.7065C48.2547 11.7065 47.6777 12.2835 47.6777 12.9951V14.5416C45.3265 14.8845 43.5384 16.8299 43.3943 19.2019C43.3943 22.1993 46.174 23.4338 48.4057 24.426C50.6185 25.4075 51.9612 26.1009 51.9612 27.4026C51.9599 28.61 50.5883 29.6293 48.965 29.6293Z" fill="#070707"></path><path d="M48.9651 41.3432C58.9281 41.3432 67.0048 33.2665 67.0048 23.3034C67.0048 13.3404 58.9281 5.26367 48.9651 5.26367C39.002 5.26367 30.9253 13.3404 30.9253 23.3034C30.936 33.2621 39.0064 41.3325 48.9651 41.3432ZM48.9651 7.84078C57.5049 7.84078 64.4277 14.7636 64.4277 23.3034C64.4277 31.8433 57.5049 38.7661 48.9651 38.7661C40.4252 38.7661 33.5024 31.8433 33.5024 23.3034C33.5118 14.7674 40.429 7.85022 48.9651 7.84078Z" fill="#070707"></path><path d="M39.7715 15.5723C40.1176 15.5723 40.4492 15.4332 40.6914 15.186C41.101 14.7669 41.5408 14.3794 42.0083 14.0258C42.5777 13.5992 42.6928 12.7913 42.2656 12.2219C41.839 11.6525 41.0311 11.5374 40.4617 11.9646C39.8905 12.3956 39.3525 12.8693 38.8523 13.3815C38.4893 13.7521 38.3836 14.3039 38.5843 14.782C38.785 15.2602 39.2525 15.5717 39.7715 15.5723Z" fill="#070707"></path><path d="M43.2956 36.2936C43.7203 36.4949 44.2205 36.449 44.6012 36.174C44.9825 35.8991 45.1832 35.4385 45.1259 34.9723C45.0686 34.5061 44.7622 34.1078 44.3262 33.9329C41.2992 32.6135 38.9788 30.0653 37.9476 26.9283C36.9158 23.7918 37.2712 20.3634 38.9247 17.5051C39.172 17.1055 39.1821 16.6035 38.9512 16.1945C38.7209 15.7855 38.2861 15.5339 37.8161 15.5389C37.3468 15.5433 36.917 15.8031 36.6943 16.2165C34.6765 19.7103 34.2436 23.8988 35.5039 27.7317C36.7641 31.5647 39.5979 34.6785 43.2956 36.2936Z" fill="#070707"></path></g><defs><clipPath id="clip0"><rect width="80" height="80" fill="white"></rect></clipPath></defs></svg> 