<?xml version="1.0" encoding="UTF-8"?> <svg xmlns="http://www.w3.org/2000/svg" width="55" height="55" viewBox="0 0 55 55" fill="none"><g clip-path="url(#clip0)"><path d="M43.4828 20.4423H54.1141C54.6034 20.4423 55 20.046 55 19.5563V2.72912C55 2.23986 54.6034 1.84318 54.1141 1.84318H43.4828C42.9936 1.84318 42.5969 2.23986 42.5969 2.72912V3.2253L25.2324 0.188964C23.7387 -0.0701562 22.2017 0.102446 20.8027 0.686872L2.5886 8.6374C0.71723 9.45456 -0.324441 11.4726 0.0925738 13.4716C0.509588 15.4706 2.27152 16.9033 4.31376 16.9041H20.9861C21.385 17.4284 21.898 17.8554 22.4859 18.1522C19.0226 20.0058 16.8527 23.6071 16.8328 27.5354C16.8307 30.1279 17.7824 32.6309 19.5067 34.5671L12.4032 36.1954V35.5141C12.4032 35.0248 12.0065 34.6281 11.5172 34.6281H0.885939C0.396683 34.6281 0 35.0248 0 35.5141V52.3417C0 52.831 0.396683 53.2277 0.885939 53.2277H11.5172C12.0065 53.2277 12.4032 52.831 12.4032 52.3417V51.8455L29.7676 54.8814C31.2614 55.1423 32.7988 54.9697 34.1973 54.3835L52.4123 46.4334C54.2837 45.6159 55.3258 43.5978 54.9083 41.5988C54.4909 39.5994 52.7285 38.1671 50.6863 38.1667H34.0139C33.6099 37.6342 33.0886 37.202 32.4899 36.904C35.3528 35.3735 37.357 32.6166 37.9306 29.4219C38.5042 26.2268 37.5836 22.9448 35.4324 20.5141L42.5969 18.8716V19.5529C42.596 19.7886 42.689 20.0149 42.8552 20.1819C43.0213 20.3488 43.2471 20.4423 43.4828 20.4423ZM44.3688 3.61506H53.2282V18.6704H44.3688V3.61506ZM10.6313 51.4558H1.77188V36.4H10.6313V51.4558ZM33.064 40.0999C33.2803 40.8306 33.1743 41.6192 32.7737 42.2676C32.0868 43.3924 30.6575 43.8107 29.4726 43.2332L23.3364 40.2211C22.896 40.0056 22.3643 40.1877 22.1489 40.6281C21.9335 41.0685 22.1156 41.6001 22.556 41.8156L28.6922 44.8281C30.6934 45.814 33.1163 45.1106 34.2787 43.2068C34.8769 42.2291 35.0729 41.0577 34.8255 39.9386H50.6837C51.8884 39.9377 52.928 40.7826 53.1737 41.9618C53.4194 43.141 52.8038 44.3306 51.699 44.8112L33.5009 52.7536C32.419 53.2069 31.2294 53.3393 30.0739 53.1355L12.4032 50.046V38.0131L22.6499 35.6637C23.984 35.3596 25.3812 35.5102 26.6197 36.0916L31.6741 38.4695C32.3485 38.7901 32.8542 39.3831 33.064 40.0999ZM36.3235 27.5354C36.3387 31.3106 33.9456 34.6753 30.3746 35.8995L27.3754 34.488C25.7783 33.7387 23.9762 33.5449 22.2558 33.9373L21.5381 34.1012C19.6685 32.431 18.6013 30.0423 18.6047 27.5354C18.622 23.7533 21.0264 20.3947 24.6008 19.1588L27.6263 20.5824C28.6797 21.0765 29.8291 21.3325 30.9927 21.3321C31.5832 21.3321 32.1715 21.2655 32.7469 21.1336L33.4105 20.9822C35.2632 22.6571 36.3218 25.0377 36.3235 27.5354ZM32.3502 19.4067C31.0161 19.7116 29.6184 19.5607 28.3803 18.9788L23.3303 16.6009C22.6559 16.2808 22.1502 15.6877 21.9404 14.9709C21.7241 14.2398 21.8301 13.4512 22.2307 12.8032C22.9181 11.6785 24.3469 11.2606 25.5317 11.8373L31.668 14.8494C32.1049 15.0527 32.624 14.8693 32.8364 14.4367C33.0488 14.0036 32.8762 13.4807 32.4484 13.2592L26.3126 10.2471C24.311 9.26422 21.8902 9.96674 20.7257 11.8684C20.127 12.8443 19.9297 14.014 20.1746 15.1323H4.31376C3.10901 15.1331 2.0695 14.2883 1.82379 13.1091C1.57808 11.9298 2.19365 10.7398 3.29848 10.2596L21.4992 2.31686C22.5811 1.86394 23.7703 1.73027 24.9257 1.93186L42.5969 5.02443V17.0573L32.3502 19.4067Z" fill="#070707"></path><path d="M27.4642 23.9918C28.3748 23.9918 29.236 24.5235 29.236 25.0815C29.236 25.5708 29.6327 25.9674 30.122 25.9674C30.6112 25.9674 31.0079 25.5708 31.0079 25.0815C30.8825 23.6505 29.7755 22.5007 28.3501 22.3216V22.2199C28.3501 21.7307 27.9534 21.334 27.4642 21.334C26.9749 21.334 26.5782 21.7307 26.5782 22.2199V22.335C25.1952 22.5824 24.164 23.7478 24.0861 25.1507C24.0861 26.9819 25.7472 27.7198 27.0822 28.3134C28.3229 28.8627 29.0695 29.2452 29.0695 29.9204C29.0695 30.5477 28.3341 31.0793 27.4642 31.0793C26.5536 31.0793 25.6923 30.5477 25.6923 29.9896C25.6923 29.5004 25.2956 29.1037 24.8063 29.1037C24.3171 29.1037 23.9204 29.5004 23.9204 29.9896C24.0459 31.4206 25.1529 32.57 26.5782 32.7491V32.8512C26.5782 33.3405 26.9749 33.7371 27.4642 33.7371C27.9534 33.7371 28.3501 33.3405 28.3501 32.8512V32.7361C29.7327 32.4883 30.7639 31.3229 30.8414 29.9204C30.8414 28.0447 29.1582 27.2955 27.8024 26.6946C26.5934 26.156 25.858 25.784 25.858 25.1507C25.858 24.517 26.5942 23.9918 27.4642 23.9918Z" fill="#070707"></path></g><defs><clipPath id="clip0"><rect width="55" height="55" fill="white"></rect></clipPath></defs></svg> 