<?xml version="1.0" encoding="UTF-8"?> <svg xmlns="http://www.w3.org/2000/svg" width="55" height="55" viewBox="0 0 55 55" fill="none"><path d="M38.6719 0.859375H16.3281C15.1889 0.86074 14.0968 1.31388 13.2913 2.11941C12.4858 2.92493 12.0326 4.01707 12.0312 5.15625V49.8438C12.0326 50.9829 12.4858 52.0751 13.2913 52.8806C14.0968 53.6861 15.1889 54.1393 16.3281 54.1406H38.6719C39.8111 54.1393 40.9032 53.6861 41.7087 52.8806C42.5142 52.0751 42.9674 50.9829 42.9688 49.8438V5.15625C42.9674 4.01707 42.5142 2.92493 41.7087 2.11941C40.9032 1.31388 39.8111 0.86074 38.6719 0.859375ZM32.1252 2.57812L31.2658 4.29688H23.7342L22.8748 2.57812H32.1252ZM41.25 49.8438C41.25 50.5275 40.9784 51.1833 40.4949 51.6668C40.0114 52.1502 39.3556 52.4219 38.6719 52.4219H16.3281C15.6444 52.4219 14.9886 52.1502 14.5051 51.6668C14.0216 51.1833 13.75 50.5275 13.75 49.8438V5.15625C13.75 4.47249 14.0216 3.81673 14.5051 3.33324C14.9886 2.84975 15.6444 2.57812 16.3281 2.57812H20.9533L22.434 5.54039C22.5054 5.68325 22.6151 5.80339 22.751 5.88733C22.8869 5.97127 23.0434 6.0157 23.2031 6.01562H31.7969C31.9573 6.0165 32.1148 5.97245 32.2515 5.88846C32.3882 5.80448 32.4986 5.6839 32.5703 5.54039L34.0467 2.57812H38.6719C39.3556 2.57812 40.0114 2.84975 40.4949 3.33324C40.9784 3.81673 41.25 4.47249 41.25 5.15625V49.8438Z" fill="#070707"></path><path d="M22.3438 49.8438H15.4688C15.2408 49.8438 15.0222 49.9343 14.8611 50.0955C14.6999 50.2566 14.6094 50.4752 14.6094 50.7031C14.6094 50.931 14.6999 51.1496 14.8611 51.3108C15.0222 51.472 15.2408 51.5625 15.4688 51.5625H22.3438C22.5717 51.5625 22.7903 51.472 22.9514 51.3108C23.1126 51.1496 23.2031 50.931 23.2031 50.7031C23.2031 50.4752 23.1126 50.2566 22.9514 50.0955C22.7903 49.9343 22.5717 49.8438 22.3438 49.8438Z" fill="#070707"></path><path d="M25.7812 49.8438H24.9219C24.694 49.8438 24.4754 49.9343 24.3142 50.0955C24.153 50.2566 24.0625 50.4752 24.0625 50.7031C24.0625 50.931 24.153 51.1496 24.3142 51.3108C24.4754 51.472 24.694 51.5625 24.9219 51.5625H25.7812C26.0092 51.5625 26.2278 51.472 26.3889 51.3108C26.5501 51.1496 26.6406 50.931 26.6406 50.7031C26.6406 50.4752 26.5501 50.2566 26.3889 50.0955C26.2278 49.9343 26.0092 49.8438 25.7812 49.8438Z" fill="#070707"></path><path d="M28.3593 25.7812H24.9218V18.9062C24.9218 18.7247 24.8644 18.5478 24.7577 18.401C24.651 18.2541 24.5006 18.1448 24.328 18.0887C24.1554 18.0326 23.9695 18.0326 23.7969 18.0887C23.6243 18.1447 23.4738 18.254 23.3671 18.4009L16.4921 27.854C16.3989 27.9822 16.343 28.1337 16.3305 28.2917C16.3181 28.4498 16.3496 28.6082 16.4215 28.7494C16.4935 28.8906 16.6031 29.0092 16.7383 29.0921C16.8734 29.1749 17.0289 29.2187 17.1874 29.2187H20.6249V36.0937C20.6248 36.2752 20.6823 36.452 20.7889 36.5989C20.8956 36.7457 21.046 36.855 21.2186 36.9111C21.3912 36.9672 21.5771 36.9673 21.7498 36.9112C21.9224 36.8551 22.0728 36.7458 22.1795 36.599L29.0545 27.1459C29.1477 27.0176 29.2036 26.8661 29.2161 26.7081C29.2286 26.5501 29.1971 26.3917 29.1251 26.2505C29.0532 26.1092 28.9435 25.9906 28.8084 25.9078C28.6732 25.825 28.5178 25.7812 28.3593 25.7812ZM22.3436 33.4511V28.3593C22.3436 28.1314 22.2531 27.9128 22.0919 27.7516C21.9308 27.5905 21.7122 27.4999 21.4843 27.4999H18.8752L23.203 21.5488V26.6406C23.203 26.8685 23.2935 27.0871 23.4547 27.2482C23.6159 27.4094 23.8345 27.4999 24.0624 27.4999H26.6714L22.3436 33.4511Z" fill="#070707"></path><path d="M37.8125 18.0469H31.7969C31.569 18.0469 31.3504 18.1374 31.1892 18.2986C31.028 18.4597 30.9375 18.6783 30.9375 18.9062V36.0938C30.9375 36.3217 31.028 36.5403 31.1892 36.7014C31.3504 36.8626 31.569 36.9531 31.7969 36.9531H37.8125C38.0404 36.9531 38.259 36.8626 38.4202 36.7014C38.5813 36.5403 38.6719 36.3217 38.6719 36.0938V18.9062C38.6719 18.6783 38.5813 18.4597 38.4202 18.2986C38.259 18.1374 38.0404 18.0469 37.8125 18.0469ZM36.9531 35.2344H32.6562V33.5156H36.9531V35.2344ZM36.9531 31.7969H32.6562V30.0781H36.9531V31.7969ZM36.9531 28.3594H32.6562V26.6406H36.9531V28.3594ZM36.9531 24.9219H32.6562V23.2031H36.9531V24.9219ZM36.9531 21.4844H32.6562V19.7656H36.9531V21.4844Z" fill="#070707"></path><path d="M20.8767 16.0765C21.0388 16.233 21.2559 16.3197 21.4812 16.3177C21.7065 16.3158 21.9221 16.2254 22.0814 16.066C22.2408 15.9067 22.3311 15.6912 22.3331 15.4658C22.3351 15.2405 22.2484 15.0234 22.0919 14.8614L21.2325 14.002C21.0704 13.8454 20.8534 13.7588 20.628 13.7608C20.4027 13.7627 20.1872 13.8531 20.0278 14.0124C19.8685 14.1718 19.7781 14.3873 19.7762 14.6126C19.7742 14.838 19.8608 15.0551 20.0174 15.2171L20.8767 16.0765Z" fill="#070707"></path><path d="M24.0625 15.4688C24.2904 15.4688 24.509 15.3782 24.6702 15.217C24.8313 15.0559 24.9219 14.8373 24.9219 14.6094V13.75C24.9219 13.5221 24.8313 13.3035 24.6702 13.1423C24.509 12.9812 24.2904 12.8906 24.0625 12.8906C23.8346 12.8906 23.616 12.9812 23.4548 13.1423C23.2937 13.3035 23.2031 13.5221 23.2031 13.75V14.6094C23.2031 14.8373 23.2937 15.0559 23.4548 15.217C23.616 15.3782 23.8346 15.4688 24.0625 15.4688Z" fill="#070707"></path><path d="M26.6407 16.3283C26.8686 16.3283 27.0871 16.2377 27.2483 16.0765L28.1076 15.2171C28.2642 15.0551 28.3508 14.838 28.3488 14.6127C28.3469 14.3873 28.2565 14.1718 28.0972 14.0124C27.9378 13.8531 27.7223 13.7627 27.497 13.7608C27.2716 13.7588 27.0546 13.8454 26.8925 14.002L26.0331 14.8614C25.913 14.9815 25.8311 15.1346 25.798 15.3013C25.7649 15.468 25.7819 15.6408 25.8469 15.7978C25.9119 15.9548 26.022 16.089 26.1633 16.1834C26.3046 16.2778 26.4707 16.3283 26.6407 16.3283Z" fill="#070707"></path></svg> 