<?xml version="1.0" encoding="UTF-8"?> <svg xmlns="http://www.w3.org/2000/svg" width="69" height="80" viewBox="0 0 69 80" fill="none"><g clip-path="url(#clip0)"><path d="M22.3345 47.4694L36.1978 27.6373C36.8228 26.7433 36.9491 25.7869 36.5442 25.0135C36.1392 24.2401 35.2799 23.7966 34.1867 23.7966H25.1308L26.6898 11.2264C26.8776 9.96642 26.5806 9.17174 25.8071 8.86442C25.0302 8.5557 24.263 8.93315 23.5339 9.97613L11.1297 27.3137C10.5046 28.2078 10.3783 29.1644 10.7832 29.9378C11.1883 30.7112 12.0475 31.1547 13.1408 31.1547H20.8797L19.1703 46.2362C18.9843 47.4922 19.2815 48.2847 20.0537 48.5917C20.2288 48.6612 20.4033 48.6961 20.5772 48.6961C21.1748 48.696 21.7639 48.2855 22.3345 47.4694ZM23.0767 29.198C22.8532 28.9487 22.5336 28.8062 22.1983 28.8062H13.1409C13.0761 28.8062 13.0206 28.8027 12.974 28.7973C12.9949 28.7586 13.0214 28.7148 13.0552 28.6667L24.0607 13.2838L22.6293 24.8265C22.5878 25.1605 22.6921 25.4961 22.9157 25.7482C23.1392 26.0002 23.4607 26.1447 23.7982 26.1447H34.1867C34.2512 26.1447 34.3065 26.1482 34.353 26.1535C34.3307 26.1945 34.3019 26.2418 34.265 26.2946L21.7766 44.1599L23.3688 30.1122C23.4064 29.78 23.3002 29.4474 23.0767 29.198Z" fill="#070707"></path><path d="M67.0109 15.0294H64.4195V8.68885C64.4195 8.04039 63.8921 7.51468 63.2416 7.51468C62.5911 7.51468 62.0637 8.04039 62.0637 8.68885V15.0294H59.3937V8.68885C59.3937 8.04039 58.8663 7.51468 58.2158 7.51468C57.5653 7.51468 57.0379 8.04039 57.0379 8.68885V15.0294H54.4465C53.796 15.0294 53.2686 15.5551 53.2686 16.2035C53.2686 16.852 53.796 17.3777 54.4465 17.3777H54.525V22.4658C54.525 25.4741 56.6916 27.9862 59.5508 28.5365V60.6654C59.5508 70.0316 51.9064 77.6517 42.5103 77.6517C38.0608 77.6517 33.8508 75.9526 30.6556 72.8675C27.7091 70.0224 25.9168 66.2821 25.5438 62.2475C26.9645 61.7353 27.9827 60.3775 27.9827 58.7867V57.456H41.8821C45.3027 57.456 48.0858 54.6818 48.0858 51.272V6.18395C48.0858 2.77417 45.3027 0 41.8821 0H6.70173C3.28106 0 0.498047 2.77417 0.498047 6.18395V51.272C0.498047 54.6818 3.28106 57.456 6.70173 57.456H20.6011V58.7867C20.6011 60.4301 21.6876 61.8248 23.1822 62.2956C23.5715 66.9536 25.6214 71.2761 29.0164 74.5542C32.6535 78.0659 37.4456 80 42.5103 80C53.2054 80 61.9066 71.3265 61.9066 60.6654V28.5365C64.7658 27.9862 66.9324 25.4741 66.9324 22.4658V17.3777H67.0109C67.6614 17.3777 68.1888 16.852 68.1888 16.2035C68.1888 15.5551 67.6614 15.0294 67.0109 15.0294ZM2.85387 51.272V6.18395C2.85387 4.06904 4.58007 2.34834 6.70173 2.34834H41.8821C44.0037 2.34834 45.7299 4.06904 45.7299 6.18395V51.272C45.7299 53.3869 44.0037 55.1076 41.8821 55.1076H6.70173C4.58007 55.1076 2.85387 53.3869 2.85387 51.272ZM22.9569 57.456H25.6269V58.7867C25.6269 59.5205 25.028 60.1174 24.2919 60.1174C23.5558 60.1174 22.9569 59.5205 22.9569 58.7867V57.456ZM64.5766 22.4658C64.5766 24.5807 62.8504 26.3014 60.7287 26.3014C58.607 26.3014 56.8809 24.5807 56.8809 22.4658V17.3777H64.5766V22.4658Z" fill="#070707"></path></g><defs><clipPath id="clip0"><rect width="68.6869" height="80" fill="white"></rect></clipPath></defs></svg> 